<svg width="496" height="200" viewBox="0 0 496 200" fill="none" xmlns="http://www.w3.org/2000/svg">
<path d="M372 4C372 1.79086 373.791 0 376 0H418C420.209 0 422 1.79086 422 4V200H372V4Z" fill="#99D8D7"/>
<path d="M446 28C446 25.7909 447.791 24 450 24H492C494.209 24 496 25.7909 496 28V200H446V28Z" fill="#99D8D7"/>
<path d="M298 36C298 33.7909 299.791 32 302 32H343C345.209 32 347 33.7909 347 36V200H298V36Z" fill="#99D8D7"/>
<path d="M224 44C224 41.7909 225.791 40 228 40H269C271.209 40 273 41.7909 273 44V200H224V44Z" fill="#99D8D7"/>
<path d="M149 68C149 65.7909 150.791 64 153 64H195C197.209 64 199 65.7909 199 68V200H149V68Z" fill="#99D8D7"/>
<circle cx="396.856" cy="76.7668" r="5.8563" fill="#008D8B"/>
<path d="M0 84C0 81.7909 1.79086 80 4 80H46C48.2091 80 50 81.7909 50 84V200H0V84Z" fill="#99D8D7"/>
<circle cx="470.856" cy="100.192" r="5.8563" fill="#008D8B"/>
<path d="M74 100C74 97.7909 75.7909 96 78 96H120C122.209 96 124 97.7909 124 100V200H74V100Z" fill="#99D8D7"/>
<circle cx="323.56" cy="111.905" r="5.8563" fill="#008D8B"/>
<circle cx="248.856" cy="128.009" r="5.8563" fill="#008D8B"/>
<circle cx="24.8563" cy="141.186" r="5.8563" fill="#008D8B"/>
<circle cx="173.856" cy="141.186" r="5.8563" fill="#008D8B"/>
<circle cx="98.8563" cy="144.114" r="5.8563" fill="#008D8B"/>
<path d="M372 4C372 1.79086 373.791 0 376 0H418C420.209 0 422 1.79086 422 4V200H372V4Z" fill="#99D8D7"/>
<path d="M446 28C446 25.7909 447.791 24 450 24H492C494.209 24 496 25.7909 496 28V200H446V28Z" fill="#99D8D7"/>
<path d="M298 36C298 33.7909 299.791 32 302 32H343C345.209 32 347 33.7909 347 36V200H298V36Z" fill="#99D8D7"/>
<path d="M224 44C224 41.7909 225.791 40 228 40H269C271.209 40 273 41.7909 273 44V200H224V44Z" fill="#99D8D7"/>
<path d="M149 68C149 65.7909 150.791 64 153 64H195C197.209 64 199 65.7909 199 68V200H149V68Z" fill="#99D8D7"/>
<circle cx="396.856" cy="76.7668" r="5.8563" fill="#008D8B"/>
<path d="M0 84C0 81.7909 1.79086 80 4 80H46C48.2091 80 50 81.7909 50 84V200H0V84Z" fill="#99D8D7"/>
<circle cx="470.856" cy="100.192" r="5.8563" fill="#008D8B"/>
<path d="M74 100C74 97.7909 75.7909 96 78 96H120C122.209 96 124 97.7909 124 100V200H74V100Z" fill="#99D8D7"/>
<circle cx="323.56" cy="111.905" r="5.8563" fill="#008D8B"/>
<circle cx="248.856" cy="128.009" r="5.8563" fill="#008D8B"/>
<circle cx="24.8563" cy="141.186" r="5.8563" fill="#008D8B"/>
<circle cx="173.856" cy="141.186" r="5.8563" fill="#008D8B"/>
<circle cx="98.8563" cy="144.114" r="5.8563" fill="#008D8B"/>
<path d="M25 141L99 144.5L174 141L249.5 128L324.5 112L397.5 77L472 100.5" stroke="#008D8B" stroke-width="3"/>
</svg>
